PathFileType	4	(X/Y/Z)	63_2_19_p1_0-190_filt_butterworth.trc
DataRate	CameraRate	NumFrames	NumMarkers	Units	OrigDataRate	OrigDataStartFrame	OrigNumFrames
48.0	48.0	7	27	m	48.0	23	190
Frame#	Time	RHip			RKnee			RAnkle			RBigToe			RSmallToe			RHeel			LHip			LKnee			LAnkle			LBigToe			LSmallToe			LHeel			Neck			Head			Nose			RShoulder			RElbow			RWrist			RThumb			RIndex			RPinky			LShoulder			LElbow			LWrist			LThumb			LIndex			LPinky			
		X1	Y1	Z1	X2	Y2	Z2	X3	Y3	Z3	X4	Y4	Z4	X5	Y5	Z5	X6	Y6	Z6	X7	Y7	Z7	X8	Y8	Z8	X9	Y9	Z9	X10	Y10	Z10	X11	Y11	Z11	X12	Y12	Z12	X13	Y13	Z13	X14	Y14	Z14	X15	Y15	Z15	X16	Y16	Z16	X17	Y17	Z17	X18	Y18	Z18	X19	Y19	Z19	X20	Y20	Z20	X21	Y21	Z21	X22	Y22	Z22	X23	Y23	Z23	X24	Y24	Z24	X25	Y25	Z25	X26	Y26	Z26	X27	Y27	Z27	
23	0.4791666666666667	0.3045908103714035	0.5911479640414453	0.7080957905987953	0.3012696870268211	0.6408833482302597	1.141431284521057	0.32511801985932903	0.8088596518729547	1.570155659193504	0.294622277163743	0.6288002446828496	1.607937346136604	0.35375602554930397	0.6505704346886654	1.604046322271679	0.32096492862662823	0.939577677802822	1.6270104150539462	0.0883502085376231	0.5963549311430041	0.7162853672821625	0.10386482127445411	0.7113119591153704	1.1648310357243499	0.14393341116018793	0.8541425301390745	1.563070253214895	0.14197623806368082	0.6668518866542644	1.5987274141298906	0.09098820275989401	0.7272156562413907	1.5998235393255595	0.17431689984139304	0.9489675057400739	1.624008679981866	0.1814421541655539	0.37622662904614423	0.15976386810477314	0.1662435686905269	0.24968965715016106	-0.06666474598359891	0.15783224817066582	0.2225758622690186	0.0745754088140633	0.3318726770438704	0.3812461362995812	0.24651197060447638	0.3749482421220479	0.4146451136941566	0.5172538824514739	0.18543434016788782	0.325884433544931	0.6673653868404288	0.0961333517346053	0.2597930150106358	0.7758659628925781	0.1487936992138184	0.3233471584074583	0.7914525311614318	0.18043129980651906	0.23064037097003195	0.7773816897730914	0.023192968677811635	0.3987033235525189	0.25090739073219614	0.013887427707796832	0.4387851735493059	0.5172119844317632	0.14443326736469012	0.3068183311997684	0.7103961654552714	0.20164519849517126	0.34954272890344285	0.7943606301823551	0.2240609470632165	0.3758709693935944	0.8243161657340132	0.21173543833871342	0.37392491426001306	0.8259086499016307
24	0.5	0.3044891382590842	0.5959751137808407	0.714828123753736	0.29956020318839605	0.6292500874570417	1.1418891058194447	0.32090456351521784	0.8009089106697522	1.5702748880016477	0.2912238742955444	0.6159733615793941	1.6037890504493533	0.3494970118688944	0.6513883548870635	1.6038502786257622	0.3209088527058416	0.938674351247089	1.6302081769011747	0.08874737129849795	0.59614946505112	0.7208368949953399	0.10398396872700234	0.7058713157883053	1.1704593425722247	0.14421044468538866	0.8525577788550108	1.5687479047188724	0.1390258332537953	0.661329614468402	1.5968988300064473	0.0913519899210532	0.7255276767303629	1.5990637845412887	0.1753493845853733	0.9510399186031524	1.6306701832886255	0.18128524089885936	0.3768719379503948	0.16303263699929485	0.16644586994124877	0.2502894430685831	-0.0629421760301111	0.15842280553584276	0.22201079082464964	0.07985004809061892	0.3319003509660136	0.38173644595264483	0.24940556700979508	0.37364716218320715	0.4075371779859678	0.5204893756640736	0.1770834775405689	0.31655136330758926	0.6613058299155787	0.07985715540683153	0.2279041366345279	0.7682364348690132	0.1384834663864458	0.297870852713998	0.7825797484925652	0.17554546841068241	0.2438198827036563	0.7735597712282059	0.02445870551644529	0.3962608680536367	0.2556516743483037	0.014739843412732	0.43756707517918714	0.517342445145187	0.14981644054434998	0.3089718416231727	0.7079850321016969	0.22262230592339094	0.3109868579027005	0.7900854754842999	0.23578640670432804	0.3514041747688619	0.8188544368882491	0.22040713362180475	0.3443124929180405	0.8160851081563121
25	0.5208333333333334	0.3044474950569197	0.5961327666026831	0.7196932545499439	0.29786193598290545	0.620372665224495	1.1446553827280204	0.3150009905929743	0.8001484400798093	1.5706641994843524	0.28708887794682053	0.6056068487169133	1.6013516277400477	0.34647406846605844	0.6505602060817692	1.6042361888651078	0.3210346999935677	0.9415701669562139	1.6355843570937612	0.08881285850852222	0.5956368072895115	0.7232327458233592	0.10412537468079279	0.698767619122235	1.1744905809917325	0.14385888789021276	0.8523323648001495	1.5750533255640837	0.13838094951914176	0.6562875064139134	1.595434981966999	0.0939805222045351	0.7153813974702813	1.59592096734725	0.17519846197404132	0.9526196883962832	1.6379625576060672	0.1793340238274781	0.3765242547856683	0.16845292898588887	0.16732090761485838	0.24790040828748414	-0.05574539808731745	0.16009122737244608	0.22072793215136904	0.08600138694654347	0.33144020555254416	0.38225967770587693	0.25394266184980574	0.37260156653424054	0.39707059781198983	0.525767423397736	0.1672945302306422	0.29933499914317224	0.6536958225337771	0.0658151530938321	0.2123066912307007	0.7602362438287174	0.11941974335945077	0.27035143811126106	0.7724992756342435	0.15021079763533435	0.24559285899970273	0.7627947991896253	0.026154508261523258	0.39202960970888945	0.2620999469642594	0.01651152587452559	0.43488602160040624	0.5174477114532947	0.15628346852035746	0.31257980835012367	0.7036117346377477	0.23394707745405777	0.27743285143518515	0.7792212397771441	0.24477976620207748	0.306476227021685	0.8114209056598638	0.22904879467261233	0.30765869724725	0.805229960603723
26	0.5416666666666666	0.3039716940388265	0.5944520486423945	0.7249568510579082	0.2958640012575521	0.6144286118056156	1.1501793102714353	0.31044028626866366	0.8023710519715779	1.5710526111203265	0.2818623453702366	0.5960945829596638	1.5988482381552875	0.3440337294784595	0.6464014619079805	1.6047579908533387	0.3213940287624167	0.944789644070297	1.6417398364266713	0.0887595152163636	0.5957750055505255	0.7252441194221396	0.10380383560723218	0.6920355372544957	1.1778235967215864	0.1440231665493219	0.8521240119251796	1.578706860461481	0.13953645107953305	0.6499493485496703	1.5943850059081157	0.0976656034312337	0.6974722991147742	1.5903668317147452	0.1748301986907632	0.9529909599512029	1.6439592434555481	0.17752471347022636	0.3748084874759286	0.17402256566716234	0.1686437778306712	0.2416410884018132	-0.047792485623557666	0.16129075174924004	0.22078480878395892	0.09247075960909602	0.33026255045906894	0.3826973100426022	0.2589407963663232	0.36890500911913454	0.3838388181989541	0.5307723266326961	0.15578513037272546	0.2755075583701866	0.6488648144104447	0.056769248159375375	0.20875558396320376	0.7528607911214326	0.09357373303391557	0.23274397356563087	0.7582016966227004	0.11421590060614173	0.21499002950687504	0.744934050771989	0.027323255260216173	0.38911469671435084	0.2682626718505411	0.017121858846737018	0.4289305325499977	0.518286106925977	0.16229436233069267	0.31043580242343705	0.6989850414288413	0.2388082184533723	0.2722666843103515	0.768419531809174	0.2520372798127947	0.25898528507182667	0.803771921567425	0.2378620519707779	0.273698566940379	0.7982066266401442
27	0.5625	0.30324951880905016	0.5946122131442827	0.7318560202532612	0.29466355622952817	0.6117565753108772	1.1558161425675437	0.30902167991912893	0.8031829979557752	1.5712135065387032	0.27656689400567347	0.5890150122587389	1.5966713929984646	0.3396020523683305	0.6403648000157127	1.6049652334141629	0.32176024785126955	0.9463065768425066	1.6478366169611023	0.08879656385720912	0.5970184819097757	0.7278846785242956	0.10250222853753076	0.6860319500078977	1.1807357542131958	0.14532618327813354	0.851984008936252	1.5795180805056988	0.14047661093731864	0.6426640062378202	1.5936353587221488	0.09923768233583521	0.6808555657584261	1.5853957959469325	0.17464258645881425	0.9515584021062098	1.647066467428728	0.17698661309037758	0.3743613970340926	0.17890963645057884	0.16939458944905156	0.23638603925756513	-0.041548294452604086	0.16190000501137863	0.2218586838466168	0.09967279070242499	0.3285458726339096	0.3829850952115945	0.26352078240680776	0.3616557989272236	0.3724213311691126	0.5349752961749097	0.1462784293133066	0.25215273757504625	0.6485588783155083	0.05113291584968514	0.20485782616500492	0.7481264583641414	0.06738115855264948	0.19459679926075393	0.7438862398836386	0.08804547623882532	0.1809687867991207	0.7313675773957007	0.02768066110145308	0.3883865236004044	0.2716877610968972	0.015254311504317995	0.42114387468520215	0.5193369232628257	0.16785267505390578	0.2954663522444219	0.6944936082510312	0.24479506612625454	0.27593379096383863	0.762329734839985	0.2577895749856355	0.2228990414254195	0.7958703677923077	0.24526068194522124	0.24375313040715627	0.79499735932889
28	0.5833333333333334	0.3026905736998192	0.5977775436253452	0.7379045911386187	0.294328311087057	0.6119860814662647	1.1588023499855402	0.30978875224076496	0.7987981131040323	1.5711922139692025	0.2725746209843434	0.5840024467030377	1.5955687363912658	0.332363216239591	0.6327110805309271	1.6031177988473566	0.3225864879623217	0.9455966665922395	1.651745963707116	0.08904331935098966	0.5989063604134904	0.7297082998881518	0.10091364957313174	0.6816474561350361	1.1823989713892262	0.1472730465171757	0.8523313766436714	1.5800652765264376	0.14050100429472637	0.6351377152208046	1.5924410962090225	0.09892753887247457	0.671203276894023	1.582779189906668	0.1749688581855554	0.9506650921998157	1.6489133101804647	0.177555506259697	0.37737314105607656	0.18389786668706357	0.1690409791645324	0.23685927078138097	-0.037599262495633556	0.16276036618442238	0.2214835832515581	0.10734191195006547	0.3267290513339996	0.38316513025325827	0.2683362610857146	0.3538643610652975	0.3636782145440045	0.5388548766105348	0.14216723481428228	0.23272651390623322	0.6499573296716763	0.04684524577267205	0.19860447792316543	0.7444418781418194	0.04690966304765592	0.17538719425664454	0.7353609089287744	0.07675079020040572	0.17542756036438456	0.7280857154067544	0.027694753413055558	0.3886961124320813	0.2734492631065602	0.013902396898241265	0.41382493717623087	0.5203886461955872	0.17288650481288112	0.26289354156580785	0.690539716808831	0.2539475215754814	0.26331768013525836	0.7599072478393226	0.2631067921760807	0.20172266526339053	0.7891251245512496	0.2513997801942608	0.21650438115568496	0.792993015654613
29	0.6041666666666666	0.30237818891656776	0.6017268939372564	0.740937715258109	0.2939712683788671	0.6135605379623104	1.159571102959403	0.31078058581558077	0.7881727122968523	1.5711548928456534	0.26993337324331873	0.5774892353324859	1.5948096040659199	0.32476031232403146	0.6197653783012864	1.597907689592807	0.3248927688455445	0.9424091589985889	1.6524727522533516	0.08942791647939807	0.6009363514545973	0.7304062559359417	0.10009295380573156	0.6793743597234156	1.1830948690714296	0.14875362989348062	0.8531533407172821	1.5818523501388642	0.1402882120406663	0.6268981650706678	1.5905881285928918	0.10044123078582859	0.6663507447664618	1.5818822777003856	0.17610384155169417	0.9542785465252502	1.6520972557494344	0.17914497887421357	0.38162288941901845	0.19025961973115735	0.16829735774439178	0.2401320443985891	-0.03452956380240799	0.16370382026569547	0.22024247436182978	0.11433208776801261	0.32533549385363614	0.38349958056312616	0.2744707964194262	0.3482186939943622	0.3537813846700454	0.5416542460477471	0.14319526348828596	0.21370011846531253	0.6501980889031638	0.043737576670814765	0.1920527938026022	0.74041830075777	0.03813365500372984	0.18158296542084357	0.7349160462003498	0.07683811453817728	0.2088136125798882	0.7337734630574386	0.02741034103796387	0.3905660575794298	0.2767230652973857	0.015577435998227406	0.4088403877356678	0.5221315590222821	0.17596854317059102	0.22342694834555774	0.6885205535927272	0.2688921632352413	0.24030545164753236	0.7591026843497839	0.2690619833462634	0.18982856551983224	0.7862051256590961	0.25525079063891815	0.19335119893420674	0.7909473907541461
